<svg width="20" height="21" viewBox="0 0 20 21" fill="none" xmlns="http://www.w3.org/2000/svg">
<path d="M18.5542 10.6787C18.5542 15.5162 14.6327 19.4378 9.79517 19.4378C8.63008 19.4378 7.51812 19.2103 6.50128 18.7973C6.30667 18.7183 6.20936 18.6788 6.1307 18.6611C6.05376 18.6439 5.99682 18.6376 5.91797 18.6376C5.83736 18.6376 5.74955 18.6522 5.57395 18.6815L2.11132 19.2586C1.74871 19.319 1.56741 19.3492 1.43631 19.293C1.32156 19.2438 1.23013 19.1523 1.18091 19.0376C1.12468 18.9065 1.1549 18.7252 1.21533 18.3626L1.79244 14.8999C1.8217 14.7243 1.83634 14.6365 1.83633 14.5559C1.83632 14.4771 1.83001 14.4201 1.81276 14.3432C1.79513 14.2645 1.75561 14.1672 1.67658 13.9726C1.26361 12.9558 1.03613 11.8438 1.03613 10.6787C1.03613 5.84123 4.95769 1.91968 9.79517 1.91968C14.6327 1.91968 18.5542 5.84123 18.5542 10.6787Z" stroke="#7A7A7A" stroke-width="1.94645" stroke-linecap="round" stroke-linejoin="round"/>
</svg>
