<svg width="14" height="13" viewBox="0 0 14 13" fill="none" xmlns="http://www.w3.org/2000/svg">
<path d="M1 2.0601C1 1.72407 1 1.55605 1.0654 1.4277C1.12292 1.31481 1.21471 1.22302 1.32761 1.16549C1.45595 1.1001 1.62397 1.1001 1.96 1.1001H12.04C12.376 1.1001 12.544 1.1001 12.6724 1.16549C12.7853 1.22302 12.8771 1.31481 12.9346 1.4277C13 1.55605 13 1.72407 13 2.0601V2.46173C13 2.62301 13 2.70365 12.9803 2.77864C12.9628 2.84508 12.9341 2.90804 12.8953 2.96475C12.8515 3.02876 12.7906 3.08157 12.6687 3.1872L8.83127 6.513C8.70939 6.61863 8.64845 6.67144 8.6047 6.73544C8.56592 6.79216 8.53717 6.85511 8.51971 6.92156C8.5 6.99654 8.5 7.07718 8.5 7.23846V10.3751C8.5 10.4925 8.5 10.5511 8.48108 10.6019C8.46435 10.6467 8.43716 10.6868 8.40175 10.719C8.36168 10.7554 8.30721 10.7772 8.19827 10.8208L6.15827 11.6368C5.93774 11.725 5.82748 11.7691 5.73896 11.7507C5.66156 11.7346 5.59363 11.6886 5.54995 11.6227C5.5 11.5474 5.5 11.4286 5.5 11.1911V7.23846C5.5 7.07718 5.5 6.99654 5.48029 6.92156C5.46283 6.85511 5.43408 6.79216 5.39531 6.73544C5.35155 6.67144 5.29061 6.61863 5.16873 6.513L1.33127 3.1872C1.20939 3.08157 1.14845 3.02876 1.10469 2.96475C1.06592 2.90804 1.03717 2.84508 1.01971 2.77864C1 2.70365 1 2.62301 1 2.46173V2.0601Z" stroke="#6A67DA" stroke-width="1.2" stroke-linecap="round" stroke-linejoin="round"/>
</svg>
